<svg width="512" height="512" viewBox="0 0 512 512" fill="none" xmlns="http://www.w3.org/2000/svg">
  <defs>
    <linearGradient id="paywave-gradient" x1="0" y1="0" x2="512" y2="512" gradientUnits="userSpaceOnUse">
      <stop offset="0%" stop-color="#3DCF8E" />
      <stop offset="100%" stop-color="#2a9d8f" />
    </linearGradient>
  </defs>
  
  <!-- Modern abstracted P/Wave shape -->
  <path d="M96 256C96 167.634 167.634 96 256 96C344.366 96 416 167.634 416 256" stroke="url(#paywave-gradient)" stroke-width="48" stroke-linecap="round" stroke-linejoin="round"/>
  <path d="M96 256C96 344.366 167.634 416 256 416C344.366 416 416 344.366 416 256" stroke="url(#paywave-gradient)" stroke-width="48" stroke-linecap="round" stroke-linejoin="round" opacity="0.5"/>
  <path d="M176 256C176 211.817 211.817 176 256 176C300.183 176 336 211.817 336 256C336 300.183 300.183 336 256 336C211.817 336 176 300.183 176 256Z" stroke="url(#paywave-gradient)" stroke-width="48" stroke-linecap="round" stroke-linejoin="round"/>
</svg>
